<svg width="2048" height="3072" viewBox="0 0 2048 3072" fill="none" xmlns="http://www.w3.org/2000/svg">
<path d="M65.7 2864.71H67.275V2861.61H68.825V2858.51H70.35V2855.44H71.9V2852.34H73.45V2849.51H65.7V2847.71H76.8V2849.51H75.25V2852.61H73.725V2855.69H72.175V2858.79H70.625V2861.89H69.075V2864.96H67.55V2866.24H76.8V2868.09H65.7V2864.71ZM79.95 2863.16H81.525V2856.96H83.075V2852.34H84.6V2847.71H86.425V2852.34H87.975V2856.96H89.5V2863.16H91.05V2868.09H89.25V2863.41H81.8V2868.09H79.95V2863.16ZM87.7 2861.61V2857.24H86.15V2852.61H84.875V2857.24H83.325V2861.61H87.7ZM94.2 2847.71H102.225V2849.24H103.75V2850.79H105.3V2855.69H103.75V2857.24H102.225V2858.51H103.75V2863.16H105.3V2868.09H103.5V2863.41H101.95V2858.79H96.05V2868.09H94.2V2847.71ZM101.95 2856.96V2855.44H103.5V2851.06H101.95V2849.51H96.05V2856.96H101.95ZM108.45 2863.16H110.025V2856.96H111.575V2852.34H113.1V2847.71H114.925V2852.34H116.475V2856.96H118V2863.16H119.55V2868.09H117.75V2863.41H110.3V2868.09H108.45V2863.16ZM116.2 2861.61V2857.24H114.65V2852.61H113.375V2857.24H111.825V2861.61H116.2ZM138.525 2861.89H136.95V2847.71H138.8V2861.61H140.075V2855.44H141.6V2849.24H143.425V2855.44H144.975V2861.61H146.25V2847.71H148.05V2861.89H146.5V2868.09H144.7V2861.89H143.15V2855.69H141.875V2861.89H140.325V2868.09H138.525V2861.89ZM152.775 2864.96H151.2V2850.79H152.775V2849.24H154.325V2847.71H159.225V2849.24H160.75V2850.79H162.3V2864.96H160.75V2866.51H159.225V2868.09H154.325V2866.51H152.775V2864.96ZM154.575 2864.71V2866.24H158.95V2864.71H160.5V2851.06H158.95V2849.51H154.575V2851.06H153.05V2864.71H154.575ZM165.45 2847.71H167.3V2850.79H168.825V2855.44H170.375V2861.61H171.65V2855.44H173.2V2850.79H174.75V2847.71H176.55V2868.09H174.75V2855.69H173.475V2861.89H171.925V2866.51H170.1V2861.89H168.575V2855.69H167.3V2868.09H165.45V2847.71ZM179.7 2863.16H181.275V2856.96H182.825V2852.34H184.35V2847.71H186.175V2852.34H187.725V2856.96H189.25V2863.16H190.8V2868.09H189V2863.41H181.55V2868.09H179.7V2863.16ZM187.45 2861.61V2857.24H185.9V2852.61H184.625V2857.24H183.075V2861.61H187.45ZM193.95 2847.71H195.8V2850.79H197.325V2853.89H198.875V2856.96H200.425V2860.06H201.975V2863.16H203.25V2847.71H205.05V2868.09H203.25V2866.51H201.7V2863.41H200.15V2860.34H198.6V2857.24H197.075V2854.16H195.8V2868.09H193.95V2847.71ZM224.025 2864.96H222.45V2850.79H224.025V2849.24H225.575V2847.71H230.475V2849.24H232V2850.79H233.55V2854.16H231.75V2851.06H230.2V2849.51H225.825V2851.06H224.3V2864.71H225.825V2866.24H230.2V2864.71H231.75V2860.06H233.55V2864.96H232V2866.51H230.475V2868.09H225.575V2866.51H224.025V2864.96ZM238.275 2864.96H236.7V2850.79H238.275V2849.24H239.825V2847.71H244.725V2849.24H246.25V2850.79H247.8V2864.96H246.25V2866.51H244.725V2868.09H239.825V2866.51H238.275V2864.96ZM240.075 2864.71V2866.24H244.45V2864.71H246V2851.06H244.45V2849.51H240.075V2851.06H238.55V2864.71H240.075ZM250.95 2847.71H252.8V2866.24H262.05V2868.09H250.95V2847.71ZM265.2 2847.71H267.05V2866.24H276.3V2868.09H265.2V2847.71ZM279.45 2847.71H290.55V2849.51H281.3V2856.96H289V2858.79H281.3V2866.24H290.55V2868.09H279.45V2847.71ZM295.275 2864.96H293.7V2850.79H295.275V2849.24H296.825V2847.71H301.725V2849.24H303.25V2850.79H304.8V2854.16H303V2851.06H301.45V2849.51H297.075V2851.06H295.55V2864.71H297.075V2866.24H301.45V2864.71H303V2860.06H304.8V2864.96H303.25V2866.51H301.725V2868.09H296.825V2866.51H295.275V2864.96ZM312.6 2851.06H307.95V2849.24H319.05V2851.06H314.425V2868.09H312.6V2851.06ZM326.825 2847.71H328.65V2868.09H326.825V2847.71ZM338.025 2864.96H336.45V2850.79H338.025V2849.24H339.575V2847.71H344.475V2849.24H346V2850.79H347.55V2864.96H346V2866.51H344.475V2868.09H339.575V2866.51H338.025V2864.96ZM339.825 2864.71V2866.24H344.2V2864.71H345.75V2851.06H344.2V2849.51H339.825V2851.06H338.3V2864.71H339.825ZM350.7 2847.71H352.55V2850.79H354.075V2853.89H355.625V2856.96H357.175V2860.06H358.725V2863.16H360V2847.71H361.8V2868.09H360V2866.51H358.45V2863.41H356.9V2860.34H355.35V2857.24H353.825V2854.16H352.55V2868.09H350.7V2847.71Z" fill="white"/>
<path d="M66.365 2909.93H65.42V2901.43H66.365V2900.5H67.295V2899.58H70.235V2900.5H71.15V2901.43H72.08V2903.45H71V2901.59H70.07V2900.66H67.445V2901.59H66.53V2909.78H67.445V2910.7H70.07V2909.78H71V2906.99H72.08V2909.93H71.15V2910.86H70.235V2911.81H67.295V2910.86H66.365V2909.93ZM74.915 2909.93H73.97V2905.13H74.915V2904.22H75.845V2903.29H78.785V2904.22H79.7V2905.13H80.63V2909.93H79.7V2910.86H78.785V2911.81H75.845V2910.86H74.915V2909.93ZM75.995 2909.78V2910.7H78.62V2909.78H79.55V2905.3H78.62V2904.37H75.995V2905.3H75.08V2909.78H75.995ZM82.52 2907.92H83.465V2906.99H87.17V2904.37H83.63V2906.23H82.52V2904.22H83.465V2903.29H87.335V2904.22H88.25V2910.7H89.18V2911.81H88.1V2910.86H86.405V2911.81H83.465V2910.86H82.52V2907.92ZM86.24 2910.7V2909.78H87.17V2908.09H83.63V2910.7H86.24ZM93.41 2904.37H91.535V2903.29H93.41V2900.5H94.49V2903.29H97.265V2904.37H94.49V2910.7H97.265V2911.81H94.325V2910.86H93.41V2904.37ZM108.17 2903.29H109.28V2904.22H110.045V2903.29H111.125V2904.22H112.82V2903.29H113.9V2904.22H114.83V2911.81H113.75V2904.37H112.985V2905.3H112.055V2911.81H110.96V2904.37H110.195V2905.3H109.28V2911.81H108.17V2903.29ZM116.72 2907.92H117.665V2906.99H121.37V2904.37H117.83V2906.23H116.72V2904.22H117.665V2903.29H121.535V2904.22H122.45V2910.7H123.38V2911.81H122.3V2910.86H120.605V2911.81H117.665V2910.86H116.72V2907.92ZM120.44 2910.7V2909.78H121.37V2908.09H117.83V2910.7H120.44ZM126.215 2909.93H125.27V2905.13H126.215V2904.22H127.145V2903.29H130.085V2904.22H130.85V2900.5H131.93V2911.81H130.85V2910.86H130.085V2911.81H127.145V2910.86H126.215V2909.93ZM127.295 2909.78V2910.7H129.92V2909.78H130.85V2905.3H129.92V2904.37H127.295V2905.3H126.38V2909.78H127.295ZM134.765 2909.93H133.82V2905.13H134.765V2904.22H135.695V2903.29H138.635V2904.22H139.55V2905.13H140.48V2908.09H134.93V2909.78H135.845V2910.7H138.47V2909.78H139.4V2908.85H140.48V2909.93H139.55V2910.86H138.635V2911.81H135.695V2910.86H134.765V2909.93ZM139.4 2906.99V2905.3H138.47V2904.37H135.845V2905.3H134.93V2906.99H139.4ZM151.865 2909.93H150.92V2905.13H151.865V2904.22H152.795V2903.29H155.735V2904.22H156.65V2905.13H157.58V2909.93H156.65V2910.86H155.735V2911.81H152.795V2910.86H151.865V2909.93ZM152.945 2909.78V2910.7H155.57V2909.78H156.5V2905.3H155.57V2904.37H152.945V2905.3H152.03V2909.78H152.945ZM161.81 2904.37H159.935V2903.29H161.81V2900.5H162.725V2899.58H165.665V2900.66H162.89V2903.29H165.665V2904.37H162.89V2911.81H161.81V2904.37ZM178.445 2908.09H177.515V2906.23H176.57V2903.29H177.68V2906.06H178.595V2907.92H179.525V2909.78H180.29V2907.92H181.22V2906.06H182.15V2903.29H183.23V2906.23H182.3V2908.09H181.385V2909.93H180.455V2911.81H179.36V2909.93H178.445V2908.09ZM187.895 2900.5H188.99V2902.52H187.895V2900.5ZM187.895 2903.29H188.99V2911.81H187.895V2903.29ZM193.67 2908.85H194.78V2910.7H199.25V2908.09H194.615V2907.16H193.67V2904.22H194.615V2903.29H199.4V2904.22H200.33V2906.23H199.25V2904.37H194.78V2906.99H199.4V2907.92H200.33V2910.86H199.4V2911.81H194.615V2910.86H193.67V2908.85ZM203.165 2909.93H202.22V2905.13H203.165V2904.22H204.095V2903.29H207.035V2904.22H207.95V2905.13H208.88V2906.23H207.8V2905.3H206.87V2904.37H204.245V2905.3H203.33V2909.78H204.245V2910.7H206.87V2909.78H207.8V2908.85H208.88V2909.93H207.95V2910.86H207.035V2911.81H204.095V2910.86H203.165V2909.93ZM211.715 2909.93H210.77V2905.13H211.715V2904.22H212.645V2903.29H215.585V2904.22H216.5V2905.13H217.43V2909.93H216.5V2910.86H215.585V2911.81H212.645V2910.86H211.715V2909.93ZM212.795 2909.78V2910.7H215.42V2909.78H216.35V2905.3H215.42V2904.37H212.795V2905.3H211.88V2909.78H212.795ZM219.32 2908.85H220.43V2910.7H224.9V2908.09H220.265V2907.16H219.32V2904.22H220.265V2903.29H225.05V2904.22H225.98V2906.23H224.9V2904.37H220.43V2906.99H225.05V2907.92H225.98V2910.86H225.05V2911.81H220.265V2910.86H219.32V2908.85ZM228.815 2909.93H227.87V2905.13H228.815V2904.22H229.745V2903.29H232.685V2904.22H233.6V2905.13H234.53V2908.09H228.98V2909.78H229.895V2910.7H232.52V2909.78H233.45V2908.85H234.53V2909.93H233.6V2910.86H232.685V2911.81H229.745V2910.86H228.815V2909.93ZM233.45 2906.99V2905.3H232.52V2904.37H229.895V2905.3H228.98V2906.99H233.45ZM247.76 2911.63V2909.93H246.845V2908.09H245.915V2905.3H244.97V2903.29H246.08V2905.13H246.995V2907.92H247.925V2909.78H248.69V2907.92H249.62V2905.13H250.55V2903.29H251.63V2905.3H250.7V2908.09H249.785V2909.93H248.855V2911.81H247.925V2912.74H244.97V2911.63H247.76ZM253.52 2907.92H254.465V2906.99H258.17V2904.37H254.63V2906.23H253.52V2904.22H254.465V2903.29H258.335V2904.22H259.25V2910.7H260.18V2911.81H259.1V2910.86H257.405V2911.81H254.465V2910.86H253.52V2907.92ZM257.24 2910.7V2909.78H258.17V2908.09H254.63V2910.7H257.24ZM263 2903.29H264.08V2904.22H264.845V2903.29H267.785V2904.37H265.01V2905.3H264.08V2911.81H263V2903.29ZM270.62 2903.29H271.73V2904.22H272.495V2903.29H275.435V2904.22H276.35V2905.13H277.28V2911.81H276.2V2905.3H275.27V2904.37H272.645V2905.3H271.73V2911.81H270.62V2903.29ZM279.695 2908.85H281.705V2910.86H279.695V2908.85ZM296.27 2899.58H302.93V2900.66H297.38V2905.13H302V2906.23H297.38V2911.81H296.27V2899.58ZM305.765 2909.93H304.82V2905.13H305.765V2904.22H306.695V2903.29H309.635V2904.22H310.55V2905.13H311.48V2908.09H305.93V2909.78H306.845V2910.7H309.47V2909.78H310.4V2908.85H311.48V2909.93H310.55V2910.86H309.635V2911.81H306.695V2910.86H305.765V2909.93ZM310.4 2906.99V2905.3H309.47V2904.37H306.845V2905.3H305.93V2906.99H310.4ZM313.37 2907.92H314.315V2906.99H318.02V2904.37H314.48V2906.23H313.37V2904.22H314.315V2903.29H318.185V2904.22H319.1V2910.7H320.03V2911.81H318.95V2910.86H317.255V2911.81H314.315V2910.86H313.37V2907.92ZM317.09 2910.7V2909.78H318.02V2908.09H314.48V2910.7H317.09ZM324.26 2904.37H322.385V2903.29H324.26V2900.5H325.34V2903.29H328.115V2904.37H325.34V2910.7H328.115V2911.81H325.175V2910.86H324.26V2904.37ZM331.415 2909.93H330.47V2903.29H331.58V2909.78H332.495V2910.7H335.12V2909.78H336.05V2903.29H337.13V2911.81H336.05V2910.86H335.285V2911.81H332.345V2910.86H331.415V2909.93ZM339.95 2903.29H341.03V2904.22H341.795V2903.29H344.735V2904.37H341.96V2905.3H341.03V2911.81H339.95V2903.29ZM348.515 2909.93H347.57V2905.13H348.515V2904.22H349.445V2903.29H352.385V2904.22H353.3V2905.13H354.23V2908.09H348.68V2909.78H349.595V2910.7H352.22V2909.78H353.15V2908.85H354.23V2909.93H353.3V2910.86H352.385V2911.81H349.445V2910.86H348.515V2909.93ZM353.15 2906.99V2905.3H352.22V2904.37H349.595V2905.3H348.68V2906.99H353.15ZM356.12 2908.85H357.23V2910.7H361.7V2908.09H357.065V2907.16H356.12V2904.22H357.065V2903.29H361.85V2904.22H362.78V2906.23H361.7V2904.37H357.23V2906.99H361.85V2907.92H362.78V2910.86H361.85V2911.81H357.065V2910.86H356.12V2908.85ZM373.22 2907.92H374.165V2906.99H377.87V2904.37H374.33V2906.23H373.22V2904.22H374.165V2903.29H378.035V2904.22H378.95V2910.7H379.88V2911.81H378.8V2910.86H377.105V2911.81H374.165V2910.86H373.22V2907.92ZM376.94 2910.7V2909.78H377.87V2908.09H374.33V2910.7H376.94ZM391.265 2909.93H390.32V2905.13H391.265V2904.22H392.195V2903.29H395.135V2904.22H396.05V2905.13H396.98V2906.23H395.9V2905.3H394.97V2904.37H392.345V2905.3H391.43V2909.78H392.345V2910.7H394.97V2909.78H395.9V2908.85H396.98V2909.93H396.05V2910.86H395.135V2911.81H392.195V2910.86H391.265V2909.93ZM399.815 2909.93H398.87V2905.13H399.815V2904.22H400.745V2903.29H403.685V2904.22H404.6V2905.13H405.53V2909.93H404.6V2910.86H403.685V2911.81H400.745V2910.86H399.815V2909.93ZM400.895 2909.78V2910.7H403.52V2909.78H404.45V2905.3H403.52V2904.37H400.895V2905.3H399.98V2909.78H400.895ZM407.42 2903.29H408.53V2904.22H409.295V2903.29H412.235V2904.22H413.15V2905.13H414.08V2911.81H413V2905.3H412.07V2904.37H409.445V2905.3H408.53V2911.81H407.42V2903.29ZM418.31 2904.37H416.435V2903.29H418.31V2900.5H419.39V2903.29H422.165V2904.37H419.39V2910.7H422.165V2911.81H419.225V2910.86H418.31V2904.37ZM425.45 2903.29H426.53V2904.22H427.295V2903.29H430.235V2904.37H427.46V2905.3H426.53V2911.81H425.45V2903.29ZM433.07 2907.92H434.015V2906.99H437.72V2904.37H434.18V2906.23H433.07V2904.22H434.015V2903.29H437.885V2904.22H438.8V2910.7H439.73V2911.81H438.65V2910.86H436.955V2911.81H434.015V2910.86H433.07V2907.92ZM436.79 2910.7V2909.78H437.72V2908.09H434.18V2910.7H436.79ZM441.62 2908.85H442.73V2910.7H447.2V2908.09H442.565V2907.16H441.62V2904.22H442.565V2903.29H447.35V2904.22H448.28V2906.23H447.2V2904.37H442.73V2906.99H447.35V2907.92H448.28V2910.86H447.35V2911.81H442.565V2910.86H441.62V2908.85ZM452.51 2904.37H450.635V2903.29H452.51V2900.5H453.59V2903.29H456.365V2904.37H453.59V2910.7H456.365V2911.81H453.425V2910.86H452.51V2904.37ZM470.045 2900.5H471.14V2911.81H470.045V2900.5ZM475.82 2907.92H476.765V2906.99H480.47V2904.37H476.93V2906.23H475.82V2904.22H476.765V2903.29H480.635V2904.22H481.55V2910.7H482.48V2911.81H481.4V2910.86H479.705V2911.81H476.765V2910.86H475.82V2907.92ZM479.54 2910.7V2909.78H480.47V2908.09H476.93V2910.7H479.54ZM484.37 2903.29H485.48V2904.22H486.245V2903.29H489.185V2904.22H490.1V2905.13H491.03V2909H490.1V2909.93H489.185V2910.86H486.245V2909.93H485.48V2912.74H484.37V2903.29ZM489.02 2909.78V2908.85H489.95V2905.3H489.02V2904.37H486.395V2905.3H485.48V2908.85H486.395V2909.78H489.02ZM493.865 2909.93H492.92V2905.13H493.865V2904.22H494.795V2903.29H497.735V2904.22H498.65V2905.13H499.58V2908.09H494.03V2909.78H494.945V2910.7H497.57V2909.78H498.5V2908.85H499.58V2909.93H498.65V2910.86H497.735V2911.81H494.795V2910.86H493.865V2909.93ZM498.5 2906.99V2905.3H497.57V2904.37H494.945V2905.3H494.03V2906.99H498.5ZM504.245 2900.5H505.34V2911.81H504.245V2900.5ZM519.515 2909.93H518.57V2905.13H519.515V2904.22H520.445V2903.29H523.385V2904.22H524.3V2905.13H525.23V2906.23H524.15V2905.3H523.22V2904.37H520.595V2905.3H519.68V2909.78H520.595V2910.7H523.22V2909.78H524.15V2908.85H525.23V2909.93H524.3V2910.86H523.385V2911.81H520.445V2910.86H519.515V2909.93ZM528.065 2909.93H527.12V2905.13H528.065V2904.22H528.995V2903.29H531.935V2904.22H532.85V2905.13H533.78V2909.93H532.85V2910.86H531.935V2911.81H528.995V2910.86H528.065V2909.93ZM529.145 2909.78V2910.7H531.77V2909.78H532.7V2905.3H531.77V2904.37H529.145V2905.3H528.23V2909.78H529.145ZM538.445 2900.5H539.54V2911.81H538.445V2900.5ZM546.995 2900.5H548.09V2911.81H546.995V2900.5ZM552.77 2907.92H553.715V2906.99H557.42V2904.37H553.88V2906.23H552.77V2904.22H553.715V2903.29H557.585V2904.22H558.5V2910.7H559.43V2911.81H558.35V2910.86H556.655V2911.81H553.715V2910.86H552.77V2907.92ZM556.49 2910.7V2909.78H557.42V2908.09H553.88V2910.7H556.49ZM562.25 2903.29H563.33V2904.22H564.095V2903.29H567.035V2904.37H564.26V2905.3H563.33V2911.81H562.25V2903.29ZM571.325 2911.63V2910.86H570.395V2908.85H572.405V2911.81H571.475V2912.74H570.395V2911.63H571.325ZM589.745 2900.5H590.84V2911.81H589.745V2900.5ZM596.465 2909.93H595.52V2905.13H596.465V2904.22H597.395V2903.29H600.335V2904.22H601.25V2905.13H602.18V2909.93H601.25V2910.86H600.335V2911.81H597.395V2910.86H596.465V2909.93ZM597.545 2909.78V2910.7H600.17V2909.78H601.1V2905.3H600.17V2904.37H597.545V2905.3H596.63V2909.78H597.545ZM604.07 2903.29H605.18V2904.22H605.945V2903.29H608.885V2904.22H609.8V2905.13H610.73V2911.81H609.65V2905.3H608.72V2904.37H606.095V2905.3H605.18V2911.81H604.07V2903.29ZM612.62 2909.78H613.565V2909H612.62V2907.92H613.565V2907.16H612.62V2904.22H613.565V2903.29H617.435V2904.22H618.2V2903.29H619.28V2904.37H618.35V2907.16H617.435V2908.09H613.73V2908.85H618.35V2909.78H619.28V2911.81H618.35V2912.74H613.565V2911.81H612.62V2909.78ZM617.27 2906.99V2904.37H613.73V2906.99H617.27ZM618.2 2911.63V2909.93H613.73V2911.63H618.2ZM629.72 2908.85H630.83V2910.7H635.3V2908.09H630.665V2907.16H629.72V2904.22H630.665V2903.29H635.45V2904.22H636.38V2906.23H635.3V2904.37H630.83V2906.99H635.45V2907.92H636.38V2910.86H635.45V2911.81H630.665V2910.86H629.72V2908.85ZM641.045 2900.5H642.14V2911.81H641.045V2900.5ZM647.765 2909.93H646.82V2905.13H647.765V2904.22H648.695V2903.29H651.635V2904.22H652.55V2905.13H653.48V2908.09H647.93V2909.78H648.845V2910.7H651.47V2909.78H652.4V2908.85H653.48V2909.93H652.55V2910.86H651.635V2911.81H648.695V2910.86H647.765V2909.93ZM652.4 2906.99V2905.3H651.47V2904.37H648.845V2905.3H647.93V2906.99H652.4ZM656.315 2909.93H655.37V2905.13H656.315V2904.22H657.245V2903.29H660.185V2904.22H661.1V2905.13H662.03V2908.09H656.48V2909.78H657.395V2910.7H660.02V2909.78H660.95V2908.85H662.03V2909.93H661.1V2910.86H660.185V2911.81H657.245V2910.86H656.315V2909.93ZM660.95 2906.99V2905.3H660.02V2904.37H657.395V2905.3H656.48V2906.99H660.95ZM665.795 2908.09H664.865V2906.23H663.92V2903.29H665.03V2906.06H665.945V2907.92H666.875V2909.78H667.64V2907.92H668.57V2906.06H669.5V2903.29H670.58V2906.23H669.65V2908.09H668.735V2909.93H667.805V2911.81H666.71V2909.93H665.795V2908.09ZM673.415 2909.93H672.47V2905.13H673.415V2904.22H674.345V2903.29H677.285V2904.22H678.2V2905.13H679.13V2908.09H673.58V2909.78H674.495V2910.7H677.12V2909.78H678.05V2908.85H679.13V2909.93H678.2V2910.86H677.285V2911.81H674.345V2910.86H673.415V2909.93ZM678.05 2906.99V2905.3H677.12V2904.37H674.495V2905.3H673.58V2906.99H678.05ZM681.02 2908.85H682.13V2910.7H686.6V2908.09H681.965V2907.16H681.02V2904.22H681.965V2903.29H686.75V2904.22H687.68V2906.23H686.6V2904.37H682.13V2906.99H686.75V2907.92H687.68V2910.86H686.75V2911.81H681.965V2910.86H681.02V2908.85ZM66.365 2924H65.42V2918.29H66.53V2923.85H67.295V2921.06H68.21V2918.29H69.305V2921.06H70.235V2923.85H71V2918.29H72.08V2924H71.15V2926.81H70.07V2924H69.14V2921.23H68.375V2924H67.445V2926.81H66.365V2924ZM76.745 2915.5H77.84V2917.52H76.745V2915.5ZM76.745 2918.29H77.84V2926.81H76.745V2918.29ZM84.86 2919.37H82.985V2918.29H84.86V2915.5H85.94V2918.29H88.715V2919.37H85.94V2925.7H88.715V2926.81H85.775V2925.86H84.86V2919.37ZM91.07 2915.5H92.18V2919.22H92.945V2918.29H95.885V2919.22H96.8V2920.13H97.73V2926.81H96.65V2920.3H95.72V2919.37H93.095V2920.3H92.18V2926.81H91.07V2915.5ZM108.17 2915.5H109.28V2919.22H110.045V2918.29H112.985V2919.22H113.9V2920.13H114.83V2924.93H113.9V2925.86H112.985V2926.81H110.045V2925.86H109.28V2926.81H108.17V2915.5ZM110.195 2924.78V2925.7H112.82V2924.78H113.75V2920.3H112.82V2919.37H110.195V2920.3H109.28V2924.78H110.195ZM117.665 2924.93H116.72V2918.29H117.83V2924.78H118.745V2925.7H121.37V2924.78H122.3V2918.29H123.38V2926.81H122.3V2925.86H121.535V2926.81H118.595V2925.86H117.665V2924.93ZM127.61 2919.37H125.735V2918.29H127.61V2915.5H128.69V2918.29H131.465V2919.37H128.69V2925.7H131.465V2926.81H128.525V2925.86H127.61V2919.37ZM136.16 2919.37H134.285V2918.29H136.16V2915.5H137.24V2918.29H140.015V2919.37H137.24V2925.7H140.015V2926.81H137.075V2925.86H136.16V2919.37ZM143.315 2924.93H142.37V2920.13H143.315V2919.22H144.245V2918.29H147.185V2919.22H148.1V2920.13H149.03V2924.93H148.1V2925.86H147.185V2926.81H144.245V2925.86H143.315V2924.93ZM144.395 2924.78V2925.7H147.02V2924.78H147.95V2920.3H147.02V2919.37H144.395V2920.3H143.48V2924.78H144.395ZM150.92 2918.29H152.03V2919.22H152.795V2918.29H155.735V2919.22H156.65V2920.13H157.58V2926.81H156.5V2920.3H155.57V2919.37H152.945V2920.3H152.03V2926.81H150.92V2918.29ZM160.415 2924.93H159.47V2920.13H160.415V2919.22H161.345V2918.29H164.285V2919.22H165.2V2920.13H166.13V2923.09H160.58V2924.78H161.495V2925.7H164.12V2924.78H165.05V2923.85H166.13V2924.93H165.2V2925.86H164.285V2926.81H161.345V2925.86H160.415V2924.93ZM165.05 2921.99V2920.3H164.12V2919.37H161.495V2920.3H160.58V2921.99H165.05ZM168.965 2924.93H168.02V2920.13H168.965V2919.22H169.895V2918.29H172.835V2919.22H173.6V2915.5H174.68V2926.81H173.6V2925.86H172.835V2926.81H169.895V2925.86H168.965V2924.93ZM170.045 2924.78V2925.7H172.67V2924.78H173.6V2920.3H172.67V2919.37H170.045V2920.3H169.13V2924.78H170.045ZM186.995 2923.09H186.065V2921.23H185.12V2918.29H186.23V2921.06H187.145V2922.92H188.075V2924.78H188.84V2922.92H189.77V2921.06H190.7V2918.29H191.78V2921.23H190.85V2923.09H189.935V2924.93H189.005V2926.81H187.91V2924.93H186.995V2923.09ZM194.615 2924.93H193.67V2920.13H194.615V2919.22H195.545V2918.29H198.485V2919.22H199.4V2920.13H200.33V2923.09H194.78V2924.78H195.695V2925.7H198.32V2924.78H199.25V2923.85H200.33V2924.93H199.4V2925.86H198.485V2926.81H195.545V2925.86H194.615V2924.93ZM199.25 2921.99V2920.3H198.32V2919.37H195.695V2920.3H194.78V2921.99H199.25ZM202.22 2918.29H203.33V2919.22H204.095V2918.29H207.035V2919.22H207.95V2920.13H208.88V2926.81H207.8V2920.3H206.87V2919.37H204.245V2920.3H203.33V2926.81H202.22V2918.29ZM213.11 2919.37H211.235V2918.29H213.11V2915.5H214.19V2918.29H216.965V2919.37H214.19V2925.7H216.965V2926.81H214.025V2925.86H213.11V2919.37ZM219.32 2923.85H220.43V2925.7H224.9V2923.09H220.265V2922.16H219.32V2919.22H220.265V2918.29H225.05V2919.22H225.98V2921.23H224.9V2919.37H220.43V2921.99H225.05V2922.92H225.98V2925.86H225.05V2926.81H220.265V2925.86H219.32V2923.85ZM229.325 2926.63V2925.86H228.395V2923.85H230.405V2926.81H229.475V2927.74H228.395V2926.63H229.325ZM246.425 2919.37H244.58V2918.29H246.425V2915.5H247.31V2914.58H250.19V2915.66H247.475V2918.29H250.19V2919.37H247.475V2926.81H246.425V2919.37ZM250.94 2914.58H252.02V2926.81H250.94V2914.58ZM253.52 2922.92H254.465V2921.99H258.17V2919.37H254.63V2921.23H253.52V2919.22H254.465V2918.29H258.335V2919.22H259.25V2925.7H260.18V2926.81H259.1V2925.86H257.405V2926.81H254.465V2925.86H253.52V2922.92ZM257.24 2925.7V2924.78H258.17V2923.09H254.63V2925.7H257.24ZM262.07 2918.29H263.18V2919.22H263.945V2918.29H266.885V2919.22H267.8V2920.13H268.73V2924H267.8V2924.93H266.885V2925.86H263.945V2924.93H263.18V2927.74H262.07V2918.29ZM266.72 2924.78V2923.85H267.65V2920.3H266.72V2919.37H264.095V2920.3H263.18V2923.85H264.095V2924.78H266.72ZM279.17 2918.29H280.28V2919.22H281.045V2918.29H283.985V2919.22H284.9V2920.13H285.83V2924H284.9V2924.93H283.985V2925.86H281.045V2924.93H280.28V2927.74H279.17V2918.29ZM283.82 2924.78V2923.85H284.75V2920.3H283.82V2919.37H281.195V2920.3H280.28V2923.85H281.195V2924.78H283.82ZM288.665 2924.93H287.72V2920.13H288.665V2919.22H289.595V2918.29H292.535V2919.22H293.45V2920.13H294.38V2924.93H293.45V2925.86H292.535V2926.81H289.595V2925.86H288.665V2924.93ZM289.745 2924.78V2925.7H292.37V2924.78H293.3V2920.3H292.37V2919.37H289.745V2920.3H288.83V2924.78H289.745ZM297.215 2924.93H296.27V2920.13H297.215V2919.22H298.145V2918.29H301.085V2919.22H302V2920.13H302.93V2921.23H301.85V2920.3H300.92V2919.37H298.295V2920.3H297.38V2924.78H298.295V2925.7H300.92V2924.78H301.85V2923.85H302.93V2924.93H302V2925.86H301.085V2926.81H298.145V2925.86H297.215V2924.93ZM304.82 2915.5H305.93V2921.99H306.695V2921.06H307.61V2920.13H309.47V2919.22H310.4V2918.29H311.48V2919.37H310.55V2920.3H309.635V2921.23H307.775V2922.16H306.845V2922.92H307.775V2923.85H309.635V2924.78H310.55V2925.7H311.48V2926.81H310.4V2925.86H309.47V2924.93H307.61V2924H306.695V2923.09H305.93V2926.81H304.82V2915.5ZM314.315 2924.93H313.37V2920.13H314.315V2919.22H315.245V2918.29H318.185V2919.22H319.1V2920.13H320.03V2923.09H314.48V2924.78H315.395V2925.7H318.02V2924.78H318.95V2923.85H320.03V2924.93H319.1V2925.86H318.185V2926.81H315.245V2925.86H314.315V2924.93ZM318.95 2921.99V2920.3H318.02V2919.37H315.395V2920.3H314.48V2921.99H318.95ZM324.26 2919.37H322.385V2918.29H324.26V2915.5H325.34V2918.29H328.115V2919.37H325.34V2925.7H328.115V2926.81H325.175V2925.86H324.26V2919.37ZM330.47 2923.85H331.58V2925.7H336.05V2923.09H331.415V2922.16H330.47V2919.22H331.415V2918.29H336.2V2919.22H337.13V2921.23H336.05V2919.37H331.58V2921.99H336.2V2922.92H337.13V2925.86H336.2V2926.81H331.415V2925.86H330.47V2923.85ZM348.515 2924.93H347.57V2920.13H348.515V2919.22H349.445V2918.29H352.385V2919.22H353.3V2920.13H354.23V2924.93H353.3V2925.86H352.385V2926.81H349.445V2925.86H348.515V2924.93ZM349.595 2924.78V2925.7H352.22V2924.78H353.15V2920.3H352.22V2919.37H349.595V2920.3H348.68V2924.78H349.595ZM356.12 2918.29H357.23V2919.22H357.995V2918.29H360.935V2919.22H361.85V2920.13H362.78V2926.81H361.7V2920.3H360.77V2919.37H358.145V2920.3H357.23V2926.81H356.12V2918.29ZM375.56 2919.37H373.685V2918.29H375.56V2915.5H376.64V2918.29H379.415V2919.37H376.64V2925.7H379.415V2926.81H376.475V2925.86H375.56V2919.37ZM381.77 2915.5H382.88V2919.22H383.645V2918.29H386.585V2919.22H387.5V2920.13H388.43V2926.81H387.35V2920.3H386.42V2919.37H383.795V2920.3H382.88V2926.81H381.77V2915.5ZM391.265 2924.93H390.32V2920.13H391.265V2919.22H392.195V2918.29H395.135V2919.22H396.05V2920.13H396.98V2923.09H391.43V2924.78H392.345V2925.7H394.97V2924.78H395.9V2923.85H396.98V2924.93H396.05V2925.86H395.135V2926.81H392.195V2925.86H391.265V2924.93ZM395.9 2921.99V2920.3H394.97V2919.37H392.345V2920.3H391.43V2921.99H395.9ZM409.76 2919.37H407.885V2918.29H409.76V2915.5H410.675V2914.58H413.615V2915.66H410.84V2918.29H413.615V2919.37H410.84V2926.81H409.76V2919.37ZM416.9 2918.29H417.98V2919.22H418.745V2918.29H421.685V2919.37H418.91V2920.3H417.98V2926.81H416.9V2918.29ZM425.465 2924.93H424.52V2920.13H425.465V2919.22H426.395V2918.29H429.335V2919.22H430.25V2920.13H431.18V2924.93H430.25V2925.86H429.335V2926.81H426.395V2925.86H425.465V2924.93ZM426.545 2924.78V2925.7H429.17V2924.78H430.1V2920.3H429.17V2919.37H426.545V2920.3H425.63V2924.78H426.545ZM433.07 2918.29H434.18V2919.22H434.945V2918.29H437.885V2919.22H438.8V2920.13H439.73V2926.81H438.65V2920.3H437.72V2919.37H435.095V2920.3H434.18V2926.81H433.07V2918.29ZM443.96 2919.37H442.085V2918.29H443.96V2915.5H445.04V2918.29H447.815V2919.37H445.04V2925.7H447.815V2926.81H444.875V2925.86H443.96V2919.37ZM451.625 2926.63V2925.86H450.695V2923.85H452.705V2926.81H451.775V2927.74H450.695V2926.63H451.625ZM468.215 2924H467.27V2918.29H468.38V2923.85H469.145V2921.06H470.06V2918.29H471.155V2921.06H472.085V2923.85H472.85V2918.29H473.93V2924H473V2926.81H471.92V2924H470.99V2921.23H470.225V2924H469.295V2926.81H468.215V2924ZM476.765 2924.93H475.82V2920.13H476.765V2919.22H477.695V2918.29H480.635V2919.22H481.55V2920.13H482.48V2923.09H476.93V2924.78H477.845V2925.7H480.47V2924.78H481.4V2923.85H482.48V2924.93H481.55V2925.86H480.635V2926.81H477.695V2925.86H476.765V2924.93ZM481.4 2921.99V2920.3H480.47V2919.37H477.845V2920.3H476.93V2921.99H481.4ZM487.145 2915.5H488.24V2926.81H487.145V2915.5ZM495.26 2919.37H493.385V2918.29H495.26V2915.5H496.34V2918.29H499.115V2919.37H496.34V2925.7H499.115V2926.81H496.175V2925.86H495.26V2919.37ZM510.02 2918.29H511.13V2919.22H511.895V2918.29H514.835V2919.22H515.75V2920.13H516.68V2924H515.75V2924.93H514.835V2925.86H511.895V2924.93H511.13V2927.74H510.02V2918.29ZM514.67 2924.78V2923.85H515.6V2920.3H514.67V2919.37H512.045V2920.3H511.13V2923.85H512.045V2924.78H514.67ZM519.515 2924.93H518.57V2920.13H519.515V2919.22H520.445V2918.29H523.385V2919.22H524.3V2920.13H525.23V2924.93H524.3V2925.86H523.385V2926.81H520.445V2925.86H519.515V2924.93ZM520.595 2924.78V2925.7H523.22V2924.78H524.15V2920.3H523.22V2919.37H520.595V2920.3H519.68V2924.78H520.595ZM528.065 2924.93H527.12V2920.13H528.065V2919.22H528.995V2918.29H531.935V2919.22H532.85V2920.13H533.78V2921.23H532.7V2920.3H531.77V2919.37H529.145V2920.3H528.23V2924.78H529.145V2925.7H531.77V2924.78H532.7V2923.85H533.78V2924.93H532.85V2925.86H531.935V2926.81H528.995V2925.86H528.065V2924.93ZM535.67 2915.5H536.78V2921.99H537.545V2921.06H538.46V2920.13H540.32V2919.22H541.25V2918.29H542.33V2919.37H541.4V2920.3H540.485V2921.23H538.625V2922.16H537.695V2922.92H538.625V2923.85H540.485V2924.78H541.4V2925.7H542.33V2926.81H541.25V2925.86H540.32V2924.93H538.46V2924H537.545V2923.09H536.78V2926.81H535.67V2915.5ZM545.165 2924.93H544.22V2920.13H545.165V2919.22H546.095V2918.29H549.035V2919.22H549.95V2920.13H550.88V2923.09H545.33V2924.78H546.245V2925.7H548.87V2924.78H549.8V2923.85H550.88V2924.93H549.95V2925.86H549.035V2926.81H546.095V2925.86H545.165V2924.93ZM549.8 2921.99V2920.3H548.87V2919.37H546.245V2920.3H545.33V2921.99H549.8ZM555.11 2919.37H553.235V2918.29H555.11V2915.5H556.19V2918.29H558.965V2919.37H556.19V2925.7H558.965V2926.81H556.025V2925.86H555.11V2919.37ZM561.32 2923.85H562.43V2925.7H566.9V2923.09H562.265V2922.16H561.32V2919.22H562.265V2918.29H567.05V2919.22H567.98V2921.23H566.9V2919.37H562.43V2921.99H567.05V2922.92H567.98V2925.86H567.05V2926.81H562.265V2925.86H561.32V2923.85ZM579.365 2924.93H578.42V2920.13H579.365V2919.22H580.295V2918.29H583.235V2919.22H584.15V2920.13H585.08V2924.93H584.15V2925.86H583.235V2926.81H580.295V2925.86H579.365V2924.93ZM580.445 2924.78V2925.7H583.07V2924.78H584V2920.3H583.07V2919.37H580.445V2920.3H579.53V2924.78H580.445ZM586.97 2918.29H588.08V2919.22H588.845V2918.29H591.785V2919.22H592.7V2920.13H593.63V2926.81H592.55V2920.3H591.62V2919.37H588.995V2920.3H588.08V2926.81H586.97V2918.29ZM606.41 2919.37H604.535V2918.29H606.41V2915.5H607.49V2918.29H610.265V2919.37H607.49V2925.7H610.265V2926.81H607.325V2925.86H606.41V2919.37ZM612.62 2915.5H613.73V2919.22H614.495V2918.29H617.435V2919.22H618.35V2920.13H619.28V2926.81H618.2V2920.3H617.27V2919.37H614.645V2920.3H613.73V2926.81H612.62V2915.5ZM622.115 2924.93H621.17V2920.13H622.115V2919.22H623.045V2918.29H625.985V2919.22H626.9V2920.13H627.83V2923.09H622.28V2924.78H623.195V2925.7H625.82V2924.78H626.75V2923.85H627.83V2924.93H626.9V2925.86H625.985V2926.81H623.045V2925.86H622.115V2924.93ZM626.75 2921.99V2920.3H625.82V2919.37H623.195V2920.3H622.28V2921.99H626.75ZM639.215 2924.93H638.27V2920.13H639.215V2919.22H640.145V2918.29H643.085V2919.22H644V2920.13H644.93V2921.23H643.85V2920.3H642.92V2919.37H640.295V2920.3H639.38V2924.78H640.295V2925.7H642.92V2924.78H643.85V2923.85H644.93V2924.93H644V2925.86H643.085V2926.81H640.145V2925.86H639.215V2924.93ZM646.82 2915.5H647.93V2919.22H648.695V2918.29H651.635V2919.22H652.55V2920.13H653.48V2926.81H652.4V2920.3H651.47V2919.37H648.845V2920.3H647.93V2926.81H646.82V2915.5ZM656.315 2924.93H655.37V2920.13H656.315V2919.22H657.245V2918.29H660.185V2919.22H661.1V2920.13H662.03V2923.09H656.48V2924.78H657.395V2925.7H660.02V2924.78H660.95V2923.85H662.03V2924.93H661.1V2925.86H660.185V2926.81H657.245V2925.86H656.315V2924.93ZM660.95 2921.99V2920.3H660.02V2919.37H657.395V2920.3H656.48V2921.99H660.95ZM663.92 2923.85H665.03V2925.7H669.5V2923.09H664.865V2922.16H663.92V2919.22H664.865V2918.29H669.65V2919.22H670.58V2921.23H669.5V2919.37H665.03V2921.99H669.65V2922.92H670.58V2925.86H669.65V2926.81H664.865V2925.86H663.92V2923.85ZM674.81 2919.37H672.935V2918.29H674.81V2915.5H675.89V2918.29H678.665V2919.37H675.89V2925.7H678.665V2926.81H675.725V2925.86H674.81V2919.37ZM65.42 2937.92H66.365V2936.99H70.07V2934.37H66.53V2936.23H65.42V2934.22H66.365V2933.29H70.235V2934.22H71.15V2940.7H72.08V2941.81H71V2940.86H69.305V2941.81H66.365V2940.86H65.42V2937.92ZM69.14 2940.7V2939.78H70.07V2938.09H66.53V2940.7H69.14ZM73.97 2933.29H75.08V2934.22H75.845V2933.29H78.785V2934.22H79.7V2935.13H80.63V2941.81H79.55V2935.3H78.62V2934.37H75.995V2935.3H75.08V2941.81H73.97V2933.29ZM83.465 2939.93H82.52V2935.13H83.465V2934.22H84.395V2933.29H87.335V2934.22H88.1V2930.5H89.18V2941.81H88.1V2940.86H87.335V2941.81H84.395V2940.86H83.465V2939.93ZM84.545 2939.78V2940.7H87.17V2939.78H88.1V2935.3H87.17V2934.37H84.545V2935.3H83.63V2939.78H84.545ZM99.62 2930.5H100.73V2934.22H101.495V2933.29H104.435V2934.22H105.35V2935.13H106.28V2939.93H105.35V2940.86H104.435V2941.81H101.495V2940.86H100.73V2941.81H99.62V2930.5ZM101.645 2939.78V2940.7H104.27V2939.78H105.2V2935.3H104.27V2934.37H101.645V2935.3H100.73V2939.78H101.645ZM109.115 2939.93H108.17V2933.29H109.28V2939.78H110.195V2940.7H112.82V2939.78H113.75V2933.29H114.83V2941.81H113.75V2940.86H112.985V2941.81H110.045V2940.86H109.115V2939.93ZM119.06 2934.37H117.185V2933.29H119.06V2930.5H120.14V2933.29H122.915V2934.37H120.14V2940.7H122.915V2941.81H119.975V2940.86H119.06V2934.37ZM127.61 2934.37H125.735V2933.29H127.61V2930.5H128.69V2933.29H131.465V2934.37H128.69V2940.7H131.465V2941.81H128.525V2940.86H127.61V2934.37ZM134.765 2939.93H133.82V2935.13H134.765V2934.22H135.695V2933.29H138.635V2934.22H139.55V2935.13H140.48V2939.93H139.55V2940.86H138.635V2941.81H135.695V2940.86H134.765V2939.93ZM135.845 2939.78V2940.7H138.47V2939.78H139.4V2935.3H138.47V2934.37H135.845V2935.3H134.93V2939.78H135.845ZM142.37 2933.29H143.48V2934.22H144.245V2933.29H147.185V2934.22H148.1V2935.13H149.03V2941.81H147.95V2935.3H147.02V2934.37H144.395V2935.3H143.48V2941.81H142.37V2933.29ZM161.81 2934.37H159.935V2933.29H161.81V2930.5H162.725V2929.58H165.665V2930.66H162.89V2933.29H165.665V2934.37H162.89V2941.81H161.81V2934.37ZM168.02 2937.92H168.965V2936.99H172.67V2934.37H169.13V2936.23H168.02V2934.22H168.965V2933.29H172.835V2934.22H173.75V2940.7H174.68V2941.81H173.6V2940.86H171.905V2941.81H168.965V2940.86H168.02V2937.92ZM171.74 2940.7V2939.78H172.67V2938.09H169.13V2940.7H171.74ZM176.57 2938.85H177.68V2940.7H182.15V2938.09H177.515V2937.16H176.57V2934.22H177.515V2933.29H182.3V2934.22H183.23V2936.23H182.15V2934.37H177.68V2936.99H182.3V2937.92H183.23V2940.86H182.3V2941.81H177.515V2940.86H176.57V2938.85ZM187.46 2934.37H185.585V2933.29H187.46V2930.5H188.54V2933.29H191.315V2934.37H188.54V2940.7H191.315V2941.81H188.375V2940.86H187.46V2934.37ZM194.615 2939.93H193.67V2935.13H194.615V2934.22H195.545V2933.29H198.485V2934.22H199.4V2935.13H200.33V2938.09H194.78V2939.78H195.695V2940.7H198.32V2939.78H199.25V2938.85H200.33V2939.93H199.4V2940.86H198.485V2941.81H195.545V2940.86H194.615V2939.93ZM199.25 2936.99V2935.3H198.32V2934.37H195.695V2935.3H194.78V2936.99H199.25ZM202.22 2933.29H203.33V2934.22H204.095V2933.29H207.035V2934.22H207.95V2935.13H208.88V2941.81H207.8V2935.3H206.87V2934.37H204.245V2935.3H203.33V2941.81H202.22V2933.29ZM213.545 2930.5H214.64V2932.52H213.545V2930.5ZM213.545 2933.29H214.64V2941.81H213.545V2933.29ZM219.32 2933.29H220.43V2934.22H221.195V2933.29H224.135V2934.22H225.05V2935.13H225.98V2941.81H224.9V2935.3H223.97V2934.37H221.345V2935.3H220.43V2941.81H219.32V2933.29ZM227.87 2939.78H228.815V2939H227.87V2937.92H228.815V2937.16H227.87V2934.22H228.815V2933.29H232.685V2934.22H233.45V2933.29H234.53V2934.37H233.6V2937.16H232.685V2938.09H228.98V2938.85H233.6V2939.78H234.53V2941.81H233.6V2942.74H228.815V2941.81H227.87V2939.78ZM232.52 2936.99V2934.37H228.98V2936.99H232.52ZM233.45 2941.63V2939.93H228.98V2941.63H233.45ZM245.915 2939.93H244.97V2935.13H245.915V2934.22H246.845V2933.29H249.785V2934.22H250.7V2935.13H251.63V2939.93H250.7V2940.86H249.785V2941.81H246.845V2940.86H245.915V2939.93ZM246.995 2939.78V2940.7H249.62V2939.78H250.55V2935.3H249.62V2934.37H246.995V2935.3H246.08V2939.78H246.995ZM253.52 2933.29H254.63V2934.22H255.395V2933.29H258.335V2934.22H259.25V2935.13H260.18V2941.81H259.1V2935.3H258.17V2934.37H255.545V2935.3H254.63V2941.81H253.52V2933.29ZM272.96 2934.37H271.085V2933.29H272.96V2930.5H274.04V2933.29H276.815V2934.37H274.04V2940.7H276.815V2941.81H273.875V2940.86H272.96V2934.37ZM279.17 2930.5H280.28V2934.22H281.045V2933.29H283.985V2934.22H284.9V2935.13H285.83V2941.81H284.75V2935.3H283.82V2934.37H281.195V2935.3H280.28V2941.81H279.17V2930.5ZM288.665 2939.93H287.72V2935.13H288.665V2934.22H289.595V2933.29H292.535V2934.22H293.45V2935.13H294.38V2938.09H288.83V2939.78H289.745V2940.7H292.37V2939.78H293.3V2938.85H294.38V2939.93H293.45V2940.86H292.535V2941.81H289.595V2940.86H288.665V2939.93ZM293.3 2936.99V2935.3H292.37V2934.37H289.745V2935.3H288.83V2936.99H293.3ZM307.16 2934.37H305.285V2933.29H307.16V2930.5H308.075V2929.58H311.015V2930.66H308.24V2933.29H311.015V2934.37H308.24V2941.81H307.16V2934.37ZM314.3 2933.29H315.38V2934.22H316.145V2933.29H319.085V2934.37H316.31V2935.3H315.38V2941.81H314.3V2933.29ZM322.865 2939.93H321.92V2935.13H322.865V2934.22H323.795V2933.29H326.735V2934.22H327.65V2935.13H328.58V2939.93H327.65V2940.86H326.735V2941.81H323.795V2940.86H322.865V2939.93ZM323.945 2939.78V2940.7H326.57V2939.78H327.5V2935.3H326.57V2934.37H323.945V2935.3H323.03V2939.78H323.945ZM330.47 2933.29H331.58V2934.22H332.345V2933.29H335.285V2934.22H336.2V2935.13H337.13V2941.81H336.05V2935.3H335.12V2934.37H332.495V2935.3H331.58V2941.81H330.47V2933.29ZM341.36 2934.37H339.485V2933.29H341.36V2930.5H342.44V2933.29H345.215V2934.37H342.44V2940.7H345.215V2941.81H342.275V2940.86H341.36V2934.37ZM348.095 2938.85H350.105V2940.86H348.095V2938.85Z" fill="white"/>
</svg>
